# xmcd
#
# Track frame offsets: 
#        150
#        15250
#        32055
#        44562
#        61660
#        76930
#        93567
#        110580
#        127727
#        148182
#        164395
#        178342
#        194292
#        212160
#
# Disc length: 3045 seconds
#
# Revision: 1
# Processed by: cddbd v1.5.1PL0 Copyright (c) Steve Scherf et al.
# Submitted via: ExactAudioCopy v0.90b4
#
DISCID=bd0be30e
DTITLE=Joe Diffie - The Essential Joe Diffie
DYEAR=2003
DGENRE=Country
TTITLE0=Home
TTITLE1=If You Want Me To
TTITLE2=If The Devil Danced (In Empty Pockets)
TTITLE3=Is It Cold In Here
TTITLE4=Not Too Much To Ask (Duet With Mary-Chapin Carpenter)
TTITLE5=Ships That Don't Come In
TTITLE6=Prop Me Up Beside The JukeBox (If I Die)
TTITLE7=Honky Tonk Attitude
TTITLE8=John Deere Green
TTITLE9=Pickup Man
TTITLE10=Third Rock From The Sun
TTITLE11=So Help Me Girl
TTITLE12=Bigger Than The Beatles
TTITLE13=This Is Your Brain
EXTD=
EXTT0=
EXTT1=
EXTT2=
EXTT3=
EXTT4=
EXTT5=
EXTT6=
EXTT7=
EXTT8=
EXTT9=
EXTT10=
EXTT11=
EXTT12=
EXTT13=
PLAYORDER=
